<svg width="1920" height="1080" viewBox="0 0 1920 1080" fill="none" xmlns="http://www.w3.org/2000/svg">
<g clip-path="url(#clip0_1_70)">
<path fill-rule="evenodd" clip-rule="evenodd" d="M714.397 417L772.664 185H1237.5L1212.91 284H842.5L833.5 311.5H1206.08L1148.34 544H682.5L707.741 443.5H1075.5L1084 417H714.397Z" fill="#EEEEEE"/>
<path d="M365.055 704.232C366.847 707.389 368.852 710.12 371.071 712.424C373.289 714.643 375.721 716.349 378.367 717.544C381.012 718.739 383.743 719.336 386.559 719.336C389.289 719.336 391.551 718.739 393.343 717.544C395.135 716.264 396.031 714.429 396.031 712.04C396.031 710.333 395.519 708.925 394.495 707.816C393.471 706.621 391.679 705.427 389.119 704.232C386.644 703.037 383.145 701.587 378.623 699.88C376.404 699.027 373.929 697.917 371.199 696.552C368.468 695.101 365.823 693.267 363.263 691.048C360.788 688.829 358.697 686.099 356.991 682.856C355.369 679.613 354.559 675.773 354.559 671.336C354.559 665.704 356.052 660.968 359.039 657.128C362.025 653.203 365.993 650.216 370.943 648.168C375.892 646.12 381.396 645.096 387.455 645.096C393.769 645.096 399.231 646.12 403.839 648.168C408.447 650.131 412.244 652.648 415.231 655.72C418.217 658.707 420.521 661.736 422.143 664.808L403.455 675.176C402.175 673.043 400.681 671.293 398.975 669.928C397.353 668.477 395.604 667.368 393.727 666.6C391.849 665.832 389.929 665.448 387.967 665.448C385.492 665.448 383.529 665.96 382.079 666.984C380.628 668.008 379.903 669.373 379.903 671.08C379.903 673.043 380.713 674.707 382.335 676.072C384.041 677.352 386.345 678.589 389.247 679.784C392.233 680.893 395.647 682.131 399.487 683.496C402.815 684.691 405.844 686.141 408.575 687.848C411.391 689.469 413.823 691.432 415.871 693.736C417.919 695.955 419.497 698.515 420.607 701.416C421.716 704.317 422.271 707.56 422.271 711.144C422.271 715.923 421.289 720.147 419.326 723.816C417.449 727.485 414.847 730.557 411.519 733.032C408.276 735.421 404.564 737.213 400.383 738.408C396.201 739.688 391.935 740.328 387.583 740.328C381.439 740.328 375.721 739.261 370.431 737.128C365.225 735.08 360.703 732.264 356.863 728.68C353.023 725.011 350.121 720.957 348.159 716.52L365.055 704.232ZM452.023 722.536L452.791 704.232H498.743L499.382 722.536H452.023ZM475.447 684.136L463.671 711.016L465.207 716.52L454.839 737H426.678L475.447 641.384L524.343 737H496.183L485.943 717.416L487.351 711.016L475.447 684.136ZM593.186 647.4H616.994V741.48L556.962 691.432V737H533.154V642.92L593.186 692.968V647.4ZM626.444 669.544V647.4H701.451V669.544H676.364V737H651.532V669.544H626.444ZM725.649 692.2C725.649 696.979 726.587 701.245 728.465 705C730.342 708.669 732.987 711.571 736.401 713.704C739.814 715.752 743.825 716.776 748.433 716.776C753.126 716.776 757.137 715.752 760.465 713.704C763.878 711.571 766.523 708.669 768.401 705C770.278 701.245 771.217 696.979 771.217 692.2C771.217 687.336 770.321 683.069 768.529 679.4C766.737 675.731 764.134 672.872 760.721 670.824C757.393 668.691 753.297 667.624 748.433 667.624C743.825 667.624 739.814 668.691 736.401 670.824C732.987 672.872 730.342 675.731 728.465 679.4C726.587 683.069 725.649 687.336 725.649 692.2ZM699.409 692.2C699.409 685.117 700.646 678.717 703.121 673C705.681 667.197 709.179 662.248 713.617 658.152C718.054 653.971 723.217 650.771 729.104 648.552C735.078 646.248 741.521 645.096 748.433 645.096C755.515 645.096 762.001 646.248 767.889 648.552C773.862 650.771 779.067 653.971 783.505 658.152C787.942 662.248 791.355 667.197 793.745 673C796.219 678.717 797.457 685.117 797.457 692.2C797.457 699.197 796.262 705.64 793.873 711.528C791.483 717.416 788.113 722.536 783.761 726.888C779.409 731.155 774.203 734.483 768.145 736.872C762.171 739.176 755.601 740.328 748.433 740.328C741.265 740.328 734.694 739.176 728.721 736.872C722.747 734.483 717.542 731.155 713.105 726.888C708.753 722.536 705.382 717.416 702.993 711.528C700.603 705.64 699.409 699.197 699.409 692.2ZM822.555 704.232C824.347 707.389 826.352 710.12 828.571 712.424C830.789 714.643 833.221 716.349 835.867 717.544C838.512 718.739 841.243 719.336 844.059 719.336C846.789 719.336 849.051 718.739 850.843 717.544C852.635 716.264 853.531 714.429 853.531 712.04C853.531 710.333 853.019 708.925 851.995 707.816C850.971 706.621 849.179 705.427 846.619 704.232C844.144 703.037 840.645 701.587 836.123 699.88C833.904 699.027 831.429 697.917 828.699 696.552C825.968 695.101 823.323 693.267 820.763 691.048C818.288 688.829 816.197 686.099 814.491 682.856C812.869 679.613 812.059 675.773 812.059 671.336C812.059 665.704 813.552 660.968 816.539 657.128C819.525 653.203 823.493 650.216 828.443 648.168C833.392 646.12 838.896 645.096 844.955 645.096C851.269 645.096 856.731 646.12 861.339 648.168C865.947 650.131 869.744 652.648 872.731 655.72C875.717 658.707 878.021 661.736 879.643 664.808L860.955 675.176C859.675 673.043 858.181 671.293 856.475 669.928C854.853 668.477 853.104 667.368 851.227 666.6C849.349 665.832 847.429 665.448 845.467 665.448C842.992 665.448 841.029 665.96 839.579 666.984C838.128 668.008 837.403 669.373 837.403 671.08C837.403 673.043 838.213 674.707 839.835 676.072C841.541 677.352 843.845 678.589 846.747 679.784C849.733 680.893 853.147 682.131 856.987 683.496C860.315 684.691 863.344 686.141 866.075 687.848C868.891 689.469 871.323 691.432 873.371 693.736C875.419 695.955 876.997 698.515 878.107 701.416C879.216 704.317 879.771 707.56 879.771 711.144C879.771 715.923 878.789 720.147 876.826 723.816C874.949 727.485 872.347 730.557 869.019 733.032C865.776 735.421 862.064 737.213 857.883 738.408C853.701 739.688 849.435 740.328 845.083 740.328C838.939 740.328 833.221 739.261 827.931 737.128C822.725 735.08 818.203 732.264 814.363 728.68C810.523 725.011 807.621 720.957 805.659 716.52L822.555 704.232ZM947.898 722.536L948.666 704.232H994.618L995.257 722.536H947.898ZM971.322 684.136L959.546 711.016L961.082 716.52L950.714 737H922.553L971.322 641.384L1020.22 737H992.058L981.818 717.416L983.226 711.016L971.322 684.136ZM1029.03 647.4H1053.86V715.88H1090.08V737H1029.03V647.4ZM1119.15 722.536L1119.92 704.232H1165.87L1166.51 722.536H1119.15ZM1142.57 684.136L1130.8 711.016L1132.33 716.52L1121.96 737H1093.8L1142.57 641.384L1191.47 737H1163.31L1153.07 717.416L1154.48 711.016L1142.57 684.136ZM1224.6 697.448H1250.07L1276.95 737H1248.02L1224.6 697.448ZM1200.28 647.4H1225.11V737H1200.28V647.4ZM1216.15 668.392V647.4H1235.48C1243.67 647.4 1250.41 648.68 1255.7 651.24C1261.08 653.8 1265.05 657.341 1267.61 661.864C1270.25 666.301 1271.57 671.464 1271.57 677.352C1271.57 683.155 1270.25 688.36 1267.61 692.968C1265.05 697.491 1261.08 701.032 1255.7 703.592C1250.41 706.067 1243.67 707.304 1235.48 707.304H1216.15V688.488H1233.43C1236.08 688.488 1238.29 688.104 1240.09 687.336C1241.88 686.568 1243.24 685.416 1244.18 683.88C1245.21 682.344 1245.72 680.509 1245.72 678.376C1245.72 676.243 1245.21 674.451 1244.18 673C1243.24 671.464 1241.88 670.312 1240.09 669.544C1238.29 668.776 1236.08 668.392 1233.43 668.392H1216.15ZM1308.55 692.2C1308.55 697.235 1309.66 701.544 1311.88 705.128C1314.18 708.627 1317.21 711.315 1320.96 713.192C1324.72 714.984 1328.86 715.88 1333.38 715.88C1337.65 715.88 1341.36 715.325 1344.52 714.216C1347.67 713.107 1350.49 711.699 1352.96 709.992C1355.44 708.2 1357.61 706.323 1359.49 704.36V730.472C1355.99 733.032 1352.11 735.165 1347.84 736.872C1343.66 738.493 1338.29 739.304 1331.72 739.304C1324.29 739.304 1317.46 738.195 1311.24 735.976C1305.01 733.757 1299.67 730.557 1295.24 726.376C1290.8 722.195 1287.34 717.245 1284.87 711.528C1282.48 705.725 1281.28 699.283 1281.28 692.2C1281.28 685.117 1282.48 678.717 1284.87 673C1287.34 667.197 1290.8 662.205 1295.24 658.024C1299.67 653.843 1305.01 650.643 1311.24 648.424C1317.46 646.205 1324.29 645.096 1331.72 645.096C1338.29 645.096 1343.66 645.907 1347.84 647.528C1352.11 649.149 1355.99 651.283 1359.49 653.928V680.04C1357.61 678.077 1355.44 676.243 1352.96 674.536C1350.49 672.744 1347.67 671.293 1344.52 670.184C1341.36 669.075 1337.65 668.52 1333.38 668.52C1328.86 668.52 1324.72 669.459 1320.96 671.336C1317.21 673.128 1314.18 675.816 1311.88 679.4C1309.66 682.899 1308.55 687.165 1308.55 692.2ZM1397.77 692.2C1397.77 696.979 1398.71 701.245 1400.59 705C1402.47 708.669 1405.11 711.571 1408.53 713.704C1411.94 715.752 1415.95 716.776 1420.56 716.776C1425.25 716.776 1429.26 715.752 1432.59 713.704C1436 711.571 1438.65 708.669 1440.53 705C1442.4 701.245 1443.34 696.979 1443.34 692.2C1443.34 687.336 1442.45 683.069 1440.65 679.4C1438.86 675.731 1436.26 672.872 1432.85 670.824C1429.52 668.691 1425.42 667.624 1420.56 667.624C1415.95 667.624 1411.94 668.691 1408.53 670.824C1405.11 672.872 1402.47 675.731 1400.59 679.4C1398.71 683.069 1397.77 687.336 1397.77 692.2ZM1371.53 692.2C1371.53 685.117 1372.77 678.717 1375.25 673C1377.81 667.197 1381.3 662.248 1385.74 658.152C1390.18 653.971 1395.34 650.771 1401.23 648.552C1407.2 646.248 1413.65 645.096 1420.56 645.096C1427.64 645.096 1434.13 646.248 1440.01 648.552C1445.99 650.771 1451.19 653.971 1455.63 658.152C1460.07 662.248 1463.48 667.197 1465.87 673C1468.34 678.717 1469.58 685.117 1469.58 692.2C1469.58 699.197 1468.39 705.64 1466 711.528C1463.61 717.416 1460.24 722.536 1455.89 726.888C1451.53 731.155 1446.33 734.483 1440.27 736.872C1434.3 739.176 1427.73 740.328 1420.56 740.328C1413.39 740.328 1406.82 739.176 1400.85 736.872C1394.87 734.483 1389.67 731.155 1385.23 726.888C1380.88 722.536 1377.51 717.416 1375.12 711.528C1372.73 705.64 1371.53 699.197 1371.53 692.2ZM1443.21 617.192L1420.17 636.392L1407.63 630.504L1426.83 610.024L1443.21 617.192ZM1542.94 647.4H1566.74V741.48L1506.71 691.432V737H1482.9V642.92L1542.94 692.968V647.4Z" fill="#EEEEEE"/>
<path d="M436.823 812.8H445.943V866H436.823V812.8ZM453.999 866H442.371V857.564H453.771C456.405 857.564 458.837 857.184 461.067 856.424C463.296 855.664 465.221 854.524 466.843 853.004C468.515 851.484 469.807 849.584 470.719 847.304C471.681 845.024 472.163 842.389 472.163 839.4C472.163 836.411 471.681 833.776 470.719 831.496C469.807 829.216 468.515 827.316 466.843 825.796C465.221 824.276 463.296 823.136 461.067 822.376C458.837 821.616 456.405 821.236 453.771 821.236H442.371V812.8H453.999C459.42 812.8 464.183 813.915 468.287 816.144C472.391 818.323 475.583 821.413 477.863 825.416C480.193 829.368 481.359 834.029 481.359 839.4C481.359 844.771 480.193 849.457 477.863 853.46C475.583 857.412 472.391 860.503 468.287 862.732C464.183 864.911 459.42 866 453.999 866ZM495.66 866V858.096H522.488V866H495.66ZM495.66 820.704V812.8H522.488V820.704H495.66ZM495.66 841.376V833.624H520.968V841.376H495.66ZM490.112 812.8H498.928V866H490.112V812.8ZM537.026 848.9C538.191 850.927 539.432 852.725 540.75 854.296C542.118 855.816 543.612 857.007 545.234 857.868C546.855 858.679 548.679 859.084 550.706 859.084C553.138 859.084 555.114 858.425 556.634 857.108C558.154 855.791 558.914 854.093 558.914 852.016C558.914 850.04 558.432 848.469 557.47 847.304C556.507 846.088 555.164 845.075 553.442 844.264C551.77 843.403 549.819 842.567 547.59 841.756C546.272 841.3 544.803 840.692 543.182 839.932C541.56 839.121 540.015 838.133 538.546 836.968C537.076 835.752 535.86 834.283 534.898 832.56C533.935 830.787 533.454 828.659 533.454 826.176C533.454 823.339 534.188 820.856 535.658 818.728C537.127 816.549 539.103 814.877 541.586 813.712C544.119 812.496 546.982 811.888 550.174 811.888C553.315 811.888 556.051 812.445 558.382 813.56C560.712 814.675 562.663 816.093 564.234 817.816C565.855 819.539 567.122 821.337 568.034 823.212L560.738 827.316C560.079 825.999 559.243 824.783 558.23 823.668C557.216 822.503 556.026 821.591 554.658 820.932C553.34 820.223 551.795 819.868 550.022 819.868C547.539 819.868 545.715 820.451 544.55 821.616C543.384 822.731 542.802 824.048 542.802 825.568C542.802 826.936 543.207 828.177 544.018 829.292C544.879 830.356 546.196 831.369 547.97 832.332C549.743 833.295 552.048 834.283 554.886 835.296C556.456 835.853 558.027 836.563 559.598 837.424C561.219 838.285 562.688 839.375 564.006 840.692C565.323 841.959 566.362 843.453 567.122 845.176C567.932 846.899 568.338 848.925 568.338 851.256C568.338 853.739 567.856 855.968 566.894 857.944C565.931 859.92 564.614 861.592 562.942 862.96C561.27 864.277 559.37 865.291 557.242 866C555.164 866.76 552.986 867.14 550.706 867.14C547.564 867.14 544.651 866.532 541.966 865.316C539.331 864.049 537.026 862.377 535.05 860.3C533.074 858.223 531.503 855.968 530.338 853.536L537.026 848.9ZM583.925 852.32L585.597 844.72H610.297L612.045 852.32H583.925ZM597.833 827.848L589.473 847.38L589.321 849.356L581.949 866H571.841L597.833 809.836L623.825 866H613.717L606.497 849.812L606.269 847.608L597.833 827.848ZM640.958 840.616H650.686L668.698 866H657.906L640.958 840.616ZM630.014 812.8H638.982V866H630.014V812.8ZM635.334 820.552V812.8H646.43C650.281 812.8 653.625 813.484 656.462 814.852C659.35 816.22 661.579 818.145 663.15 820.628C664.721 823.06 665.506 825.948 665.506 829.292C665.506 832.636 664.721 835.549 663.15 838.032C661.579 840.515 659.35 842.44 656.462 843.808C653.625 845.176 650.281 845.86 646.43 845.86H635.334V838.488H646.05C648.077 838.488 649.85 838.133 651.37 837.424C652.941 836.715 654.157 835.701 655.018 834.384C655.879 833.016 656.31 831.395 656.31 829.52C656.31 827.595 655.879 825.973 655.018 824.656C654.157 823.339 652.941 822.325 651.37 821.616C649.85 820.907 648.077 820.552 646.05 820.552H635.334ZM686.157 840.616H695.885L713.897 866H703.105L686.157 840.616ZM675.213 812.8H684.181V866H675.213V812.8ZM680.533 820.552V812.8H691.629C695.48 812.8 698.824 813.484 701.661 814.852C704.549 816.22 706.778 818.145 708.349 820.628C709.92 823.06 710.705 825.948 710.705 829.292C710.705 832.636 709.92 835.549 708.349 838.032C706.778 840.515 704.549 842.44 701.661 843.808C698.824 845.176 695.48 845.86 691.629 845.86H680.533V838.488H691.249C693.276 838.488 695.049 838.133 696.569 837.424C698.14 836.715 699.356 835.701 700.217 834.384C701.078 833.016 701.509 831.395 701.509 829.52C701.509 827.595 701.078 825.973 700.217 824.656C699.356 823.339 698.14 822.325 696.569 821.616C695.049 820.907 693.276 820.552 691.249 820.552H680.533ZM726.872 839.4C726.872 843.048 727.632 846.316 729.152 849.204C730.723 852.041 732.876 854.271 735.612 855.892C738.348 857.513 741.464 858.324 744.96 858.324C748.507 858.324 751.623 857.513 754.308 855.892C757.044 854.271 759.172 852.041 760.692 849.204C762.263 846.316 763.048 843.048 763.048 839.4C763.048 835.752 762.288 832.509 760.768 829.672C759.248 826.784 757.12 824.529 754.384 822.908C751.699 821.287 748.558 820.476 744.96 820.476C741.464 820.476 738.348 821.287 735.612 822.908C732.876 824.529 730.723 826.784 729.152 829.672C727.632 832.509 726.872 835.752 726.872 839.4ZM717.372 839.4C717.372 835.397 718.056 831.724 719.424 828.38C720.792 825.036 722.718 822.148 725.2 819.716C727.734 817.233 730.672 815.308 734.016 813.94C737.411 812.572 741.059 811.888 744.96 811.888C748.963 811.888 752.636 812.572 755.98 813.94C759.324 815.308 762.238 817.233 764.72 819.716C767.254 822.148 769.204 825.036 770.572 828.38C771.94 831.724 772.624 835.397 772.624 839.4C772.624 843.352 771.94 847.025 770.572 850.42C769.204 853.815 767.279 856.753 764.796 859.236C762.314 861.719 759.375 863.669 755.98 865.088C752.636 866.456 748.963 867.14 744.96 867.14C741.008 867.14 737.335 866.456 733.94 865.088C730.546 863.669 727.607 861.719 725.124 859.236C722.692 856.753 720.792 853.815 719.424 850.42C718.056 847.025 717.372 843.352 717.372 839.4ZM781.346 812.8H790.314V857.944H811.442V866H781.346V812.8ZM817.936 812.8H826.904V857.944H848.032V866H817.936V812.8ZM863.21 852.32L864.882 844.72H889.582L891.33 852.32H863.21ZM877.118 827.848L868.758 847.38L868.606 849.356L861.234 866H851.126L877.118 809.836L903.11 866H893.002L885.782 849.812L885.554 847.608L877.118 827.848ZM909.299 812.8H918.419V866H909.299V812.8ZM926.475 866H914.847V857.564H926.247C928.882 857.564 931.314 857.184 933.543 856.424C935.772 855.664 937.698 854.524 939.319 853.004C940.991 851.484 942.283 849.584 943.195 847.304C944.158 845.024 944.639 842.389 944.639 839.4C944.639 836.411 944.158 833.776 943.195 831.496C942.283 829.216 940.991 827.316 939.319 825.796C937.698 824.276 935.772 823.136 933.543 822.376C931.314 821.616 928.882 821.236 926.247 821.236H914.847V812.8H926.475C931.896 812.8 936.659 813.915 940.763 816.144C944.867 818.323 948.059 821.413 950.339 825.416C952.67 829.368 953.835 834.029 953.835 839.4C953.835 844.771 952.67 849.457 950.339 853.46C948.059 857.412 944.867 860.503 940.763 862.732C936.659 864.911 931.896 866 926.475 866ZM969.048 839.4C969.048 843.048 969.808 846.316 971.328 849.204C972.899 852.041 975.052 854.271 977.788 855.892C980.524 857.513 983.64 858.324 987.136 858.324C990.683 858.324 993.799 857.513 996.484 855.892C999.22 854.271 1001.35 852.041 1002.87 849.204C1004.44 846.316 1005.22 843.048 1005.22 839.4C1005.22 835.752 1004.46 832.509 1002.94 829.672C1001.42 826.784 999.296 824.529 996.56 822.908C993.875 821.287 990.733 820.476 987.136 820.476C983.64 820.476 980.524 821.287 977.788 822.908C975.052 824.529 972.899 826.784 971.328 829.672C969.808 832.509 969.048 835.752 969.048 839.4ZM959.548 839.4C959.548 835.397 960.232 831.724 961.6 828.38C962.968 825.036 964.893 822.148 967.376 819.716C969.909 817.233 972.848 815.308 976.192 813.94C979.587 812.572 983.235 811.888 987.136 811.888C991.139 811.888 994.812 812.572 998.156 813.94C1001.5 815.308 1004.41 817.233 1006.9 819.716C1009.43 822.148 1011.38 825.036 1012.75 828.38C1014.12 831.724 1014.8 835.397 1014.8 839.4C1014.8 843.352 1014.12 847.025 1012.75 850.42C1011.38 853.815 1009.45 856.753 1006.97 859.236C1004.49 861.719 1001.55 863.669 998.156 865.088C994.812 866.456 991.139 867.14 987.136 867.14C983.184 867.14 979.511 866.456 976.116 865.088C972.721 863.669 969.783 861.719 967.3 859.236C964.868 856.753 962.968 853.815 961.6 850.42C960.232 847.025 959.548 843.352 959.548 839.4ZM1034.47 840.616H1044.19L1062.21 866H1051.41L1034.47 840.616ZM1023.52 812.8H1032.49V866H1023.52V812.8ZM1028.84 820.552V812.8H1039.94C1043.79 812.8 1047.13 813.484 1049.97 814.852C1052.86 816.22 1055.09 818.145 1056.66 820.628C1058.23 823.06 1059.01 825.948 1059.01 829.292C1059.01 832.636 1058.23 835.549 1056.66 838.032C1055.09 840.515 1052.86 842.44 1049.97 843.808C1047.13 845.176 1043.79 845.86 1039.94 845.86H1028.84V838.488H1039.56C1041.58 838.488 1043.36 838.133 1044.88 837.424C1046.45 836.715 1047.66 835.701 1048.53 834.384C1049.39 833.016 1049.82 831.395 1049.82 829.52C1049.82 827.595 1049.39 825.973 1048.53 824.656C1047.66 823.339 1046.45 822.325 1044.88 821.616C1043.36 820.907 1041.58 820.552 1039.56 820.552H1028.84ZM1097.05 820.856V812.8H1120.84V820.856H1097.05ZM1097.05 841.984V834.156H1120.08V841.984H1097.05ZM1091.51 812.8H1100.32V866H1091.51V812.8ZM1130.76 812.8H1139.73V848.14C1139.73 851.433 1140.59 854.093 1142.31 856.12C1144.08 858.096 1146.69 859.084 1150.14 859.084C1153.53 859.084 1156.12 858.096 1157.89 856.12C1159.66 854.093 1160.55 851.433 1160.55 848.14V812.8H1169.52V848.52C1169.52 851.459 1169.04 854.093 1168.07 856.424C1167.16 858.704 1165.85 860.655 1164.12 862.276C1162.4 863.897 1160.35 865.139 1157.97 866C1155.59 866.861 1152.98 867.292 1150.14 867.292C1147.3 867.292 1144.69 866.861 1142.31 866C1139.93 865.139 1137.85 863.897 1136.08 862.276C1134.36 860.655 1133.04 858.704 1132.13 856.424C1131.21 854.093 1130.76 851.459 1130.76 848.52V812.8ZM1181.01 812.8H1189.98V857.944H1211.11V866H1181.01V812.8ZM1217.6 812.8H1226.57V857.944H1247.7V866H1217.6V812.8ZM1248.65 851.636V844.264H1264.23V851.636H1248.65ZM1274.02 848.9C1275.18 850.927 1276.42 852.725 1277.74 854.296C1279.11 855.816 1280.6 857.007 1282.23 857.868C1283.85 858.679 1285.67 859.084 1287.7 859.084C1290.13 859.084 1292.11 858.425 1293.63 857.108C1295.15 855.791 1295.91 854.093 1295.91 852.016C1295.91 850.04 1295.42 848.469 1294.46 847.304C1293.5 846.088 1292.16 845.075 1290.43 844.264C1288.76 843.403 1286.81 842.567 1284.58 841.756C1283.26 841.3 1281.8 840.692 1280.17 839.932C1278.55 839.121 1277.01 838.133 1275.54 836.968C1274.07 835.752 1272.85 834.283 1271.89 832.56C1270.93 830.787 1270.45 828.659 1270.45 826.176C1270.45 823.339 1271.18 820.856 1272.65 818.728C1274.12 816.549 1276.1 814.877 1278.58 813.712C1281.11 812.496 1283.97 811.888 1287.17 811.888C1290.31 811.888 1293.04 812.445 1295.37 813.56C1297.7 814.675 1299.66 816.093 1301.23 817.816C1302.85 819.539 1304.11 821.337 1305.03 823.212L1297.73 827.316C1297.07 825.999 1296.24 824.783 1295.22 823.668C1294.21 822.503 1293.02 821.591 1291.65 820.932C1290.33 820.223 1288.79 819.868 1287.01 819.868C1284.53 819.868 1282.71 820.451 1281.54 821.616C1280.38 822.731 1279.79 824.048 1279.79 825.568C1279.79 826.936 1280.2 828.177 1281.01 829.292C1281.87 830.356 1283.19 831.369 1284.96 832.332C1286.74 833.295 1289.04 834.283 1291.88 835.296C1293.45 835.853 1295.02 836.563 1296.59 837.424C1298.21 838.285 1299.68 839.375 1301 840.692C1302.32 841.959 1303.35 843.453 1304.11 845.176C1304.92 846.899 1305.33 848.925 1305.33 851.256C1305.33 853.739 1304.85 855.968 1303.89 857.944C1302.92 859.92 1301.61 861.592 1299.93 862.96C1298.26 864.277 1296.36 865.291 1294.23 866C1292.16 866.76 1289.98 867.14 1287.7 867.14C1284.56 867.14 1281.64 866.532 1278.96 865.316C1276.32 864.049 1274.02 862.377 1272.04 860.3C1270.07 858.223 1268.5 855.968 1267.33 853.536L1274.02 848.9ZM1309.21 821.084V812.8H1346.3V821.084H1332.24V866H1323.2V821.084H1309.21ZM1351.64 852.32L1353.32 844.72H1378.02L1379.76 852.32H1351.64ZM1365.55 827.848L1357.19 847.38L1357.04 849.356L1349.67 866H1339.56L1365.55 809.836L1391.54 866H1381.44L1374.22 849.812L1373.99 847.608L1365.55 827.848ZM1402.04 839.4C1402.04 843.149 1402.88 846.443 1404.55 849.28C1406.27 852.117 1408.5 854.321 1411.24 855.892C1414.03 857.412 1417.04 858.172 1420.28 858.172C1422.82 858.172 1425.1 857.843 1427.12 857.184C1429.15 856.525 1430.97 855.639 1432.6 854.524C1434.27 853.359 1435.71 852.067 1436.93 850.648V861.288C1434.7 863.112 1432.29 864.505 1429.71 865.468C1427.12 866.431 1423.88 866.912 1419.98 866.912C1416.08 866.912 1412.43 866.253 1409.04 864.936C1405.69 863.619 1402.78 861.719 1400.3 859.236C1397.81 856.753 1395.86 853.84 1394.44 850.496C1393.08 847.101 1392.39 843.403 1392.39 839.4C1392.39 835.397 1393.08 831.724 1394.44 828.38C1395.86 824.985 1397.81 822.047 1400.3 819.564C1402.78 817.081 1405.69 815.181 1409.04 813.864C1412.43 812.547 1416.08 811.888 1419.98 811.888C1423.88 811.888 1427.12 812.369 1429.71 813.332C1432.29 814.295 1434.7 815.688 1436.93 817.512V828.152C1435.71 826.733 1434.27 825.467 1432.6 824.352C1430.97 823.187 1429.15 822.275 1427.12 821.616C1425.1 820.957 1422.82 820.628 1420.28 820.628C1417.04 820.628 1414.03 821.413 1411.24 822.984C1408.5 824.504 1406.27 826.683 1404.55 829.52C1402.88 832.307 1402.04 835.6 1402.04 839.4ZM1447.98 812.8H1457.17V866H1447.98V812.8ZM1476.93 812.8H1487.73L1465.31 837.728L1488.87 866H1477.85L1454.44 837.956L1476.93 812.8Z" fill="#EEEEEE"/>
<rect x="4" y="4" width="1912" height="1072" stroke="#EEEEEE" stroke-width="8"/>
</g>
<defs>
<clipPath id="clip0_1_70">
<rect width="1920" height="1080" fill="white"/>
</clipPath>
</defs>
</svg>
