<svg id="social" fill="currentColor" xmlns="http://www.w3.org/2000/svg" xmlns:xlink="http://www.w3.org/1999/xlink" x="0px" y="0px" viewBox="0 0 1000 1000" enable-background="new 0 0 1000 1000" xml:space="preserve">
<g><g><path d="M917.6,10H82.4C42.4,10,10,41.4,10,80.2v839.5c0,38.8,32.4,70.2,72.4,70.2h835.2c40,0,72.4-31.5,72.4-70.2V80.2C990,41.4,957.6,10,917.6,10z M307.1,830.3H159V387.9h148.1V830.3z M233.1,327.4h-1c-49.7,0-81.8-34-81.8-76.5c0-43.4,33.1-76.4,83.8-76.4c50.6,0,81.8,33,82.8,76.4C316.8,293.5,284.7,327.4,233.1,327.4z M840.9,830.3h-148V593.6c0-59.5-21.4-100.1-75-100.1c-41,0-65.3,27.4-75.9,53.8c-4,9.4-4.9,22.6-4.9,35.8v247.1H389c0,0,1.9-401,0-442.5h148v62.7c19.6-30.1,54.8-73.1,133.4-73.1c97.4,0,170.5,63.2,170.5,199.2V830.3L840.9,830.3z M536.1,452c0.3-0.4,0.6-0.9,1-1.4v1.4H536.1z"/></g><g></g><g></g><g></g><g></g><g></g><g></g><g></g><g></g><g></g><g></g><g></g><g></g><g></g><g></g><g></g></g>
</svg>
